<svg xmlns="http://www.w3.org/2000/svg" width="24" height="24" viewBox="0 0 24 24"><path d="M12 0c-6.627 0-12 5.373-12 12s5.373 12 12 12 12-5.373 12-12-5.373-12-12-12zm5 20l-1.359-2.038c-1.061.653-2.305 1.038-3.641 1.038-3.859 0-7-3.14-7-7h2c0 2.757 2.243 5 5 5 .927 0 1.786-.264 2.527-.708l-1.527-2.292h5.719l-1.719 6zm0-8c0-2.757-2.243-5-5-5-.927 0-1.786.264-2.527.708l1.527 2.292h-5.719l1.719-6 1.359 2.038c1.061-.653 2.305-1.038 3.641-1.038 3.859 0 7 3.14 7 7h-2z" style="stroke:none;fill-rule:nonzero;fill:#2f2f2f;fill-opacity:1;"/></svg>
